<?xml version="1.0" standalone="no"?>
<!DOCTYPE svg PUBLIC "-//W3C//DTD SVG 20010904//EN"
 "http://www.w3.org/TR/2001/REC-SVG-20010904/DTD/svg10.dtd">
<svg version="1.0" xmlns="http://www.w3.org/2000/svg"
 width="112.000000pt" height="112.000000pt" viewBox="0 0 112.000000 112.000000"
 preserveAspectRatio="xMidYMid meet">

<g transform="translate(0.000000,112.000000) scale(0.100000,-0.100000)"
fill="#fff" stroke="none">
<path d="M530 1102 c-80 -27 -119 -49 -172 -98 -26 -24 -52 -44 -58 -44 -19 0
-101 -83 -122 -124 -16 -31 -19 -54 -16 -117 l3 -77 -38 -26 c-21 -14 -44 -26
-50 -26 -20 0 -37 -22 -37 -47 0 -16 -6 -23 -20 -23 -19 0 -20 -7 -20 -181 0
-107 4 -178 9 -175 5 4 17 -17 26 -45 24 -71 32 -53 10 23 -17 59 -27 219 -15
232 3 3 24 -1 47 -9 46 -16 82 -10 141 25 28 17 37 18 44 8 14 -22 26 -79 33
-153 9 -103 15 -130 26 -114 25 41 -1 219 -45 307 -13 26 -27 63 -31 82 -9 42
-31 70 -57 70 -16 0 -12 10 24 63 62 91 141 163 225 203 73 35 94 61 80 98 -4
9 4 18 21 24 64 25 68 24 96 -16 14 -21 26 -43 26 -48 0 -6 -17 -15 -37 -20
l-38 -10 40 -7 c121 -21 151 -28 198 -50 29 -13 76 -48 106 -78 50 -49 54 -51
49 -26 -5 25 -3 28 21 25 22 -3 27 -9 33 -46 6 -36 3 -48 -17 -79 -27 -39 -29
-60 -16 -143 5 -30 10 -98 12 -150 1 -52 8 -109 14 -126 17 -41 6 -58 -61 -95
-62 -35 -70 -53 -20 -44 32 6 34 5 46 -29 9 -28 17 -36 36 -36 l24 0 -25 40
c-14 22 -25 43 -25 48 0 4 13 16 30 25 34 21 47 56 30 86 -10 19 -8 21 25 21
28 0 35 4 35 20 0 11 -6 20 -14 20 -10 0 -11 11 -5 52 8 51 -3 200 -21 281 -8
38 -8 39 18 33 15 -4 22 -3 16 1 -5 4 -16 46 -23 93 -16 108 -40 163 -99 223
-44 46 -126 97 -154 97 -7 0 10 -11 39 -24 59 -28 137 -96 159 -138 13 -24 13
-31 1 -48 -13 -19 -15 -17 -45 24 -66 94 -201 156 -342 156 -43 0 -85 3 -94 6
-21 8 -20 24 1 24 9 0 14 3 10 6 -10 10 -73 -15 -116 -47 -23 -16 -51 -29 -62
-29 -22 0 -22 1 -4 20 31 34 149 87 224 101 83 14 208 1 296 -32 92 -34 171
-118 201 -212 l13 -42 0 55 c1 48 -4 60 -33 98 -46 57 -99 99 -166 131 -50 24
-68 26 -195 28 -113 2 -150 -1 -195 -15z m302 -164 c49 -22 84 -48 119 -86 27
-29 49 -58 49 -63 0 -20 -60 -8 -87 17 -32 30 -117 71 -172 82 -28 6 -40 16
-53 42 -9 19 -17 39 -18 44 0 17 94 -4 162 -36z m-480 -25 c-16 -21 -44 -67
-61 -101 -18 -35 -45 -81 -61 -103 -32 -45 -40 -37 -40 40 0 69 55 146 130
183 30 14 57 25 59 23 2 -2 -10 -21 -27 -42z m146 16 c3 -23 -4 -28 -61 -53
-57 -24 -97 -27 -97 -6 0 9 40 61 60 77 8 7 33 12 55 10 35 -2 40 -5 43 -28z
m566 -315 c4 -10 9 -50 13 -89 6 -71 5 -73 -21 -90 -15 -10 -29 -16 -31 -13
-2 2 -9 36 -15 75 -10 61 -9 76 5 102 17 34 39 40 49 15z m-904 -28 c0 -3 -4
-8 -10 -11 -5 -3 -10 -1 -10 4 0 6 5 11 10 11 6 0 10 -2 10 -4z m-28 -57 l23
-31 5 28 c8 46 35 41 53 -8 34 -90 33 -93 -16 -122 -50 -30 -80 -32 -130 -11
-38 16 -47 31 -47 77 0 27 3 30 25 26 22 -5 25 -2 25 27 0 55 27 61 62 14z"/>
<path d="M628 1053 c29 -2 74 -2 100 0 26 2 2 3 -53 3 -55 0 -76 -1 -47 -3z"/>
<path d="M788 1043 c6 -2 18 -2 25 0 6 3 1 5 -13 5 -14 0 -19 -2 -12 -5z"/>
<path d="M340 701 c-5 -11 -10 -26 -10 -34 0 -8 -9 -22 -20 -32 -30 -27 -27
-78 6 -104 29 -23 83 -28 116 -10 23 12 48 67 48 104 0 36 -44 78 -75 73 -14
-3 -26 0 -29 8 -8 20 -24 17 -36 -5z m120 -76 c0 -32 -25 -51 -45 -35 -20 17
-19 57 2 69 23 12 43 -4 43 -34z m-84 -6 c3 -6 1 -16 -5 -22 -9 -9 -14 -8 -21
3 -9 15 -4 30 10 30 5 0 12 -5 16 -11z"/>
<path d="M750 531 c-71 -70 -41 -182 53 -198 77 -12 113 24 105 106 -2 27 1
42 9 45 14 6 18 38 6 49 -3 4 -12 2 -20 -5 -10 -8 -19 -6 -36 11 -34 31 -82
28 -117 -8z m70 -24 c0 -28 -17 -47 -42 -47 -21 0 -25 39 -6 58 21 21 48 14
48 -11z m40 -60 c0 -8 -3 -17 -7 -20 -9 -9 -34 13 -27 24 8 14 34 11 34 -4z"/>
<path d="M511 492 c-1 -12 4 -31 11 -41 22 -36 4 -51 -61 -51 -67 0 -96 18
-85 52 4 14 2 18 -5 14 -13 -8 -15 -52 -2 -60 5 -3 12 -27 16 -53 15 -106 61
-153 151 -153 51 0 91 20 132 67 9 11 27 23 40 27 12 4 22 14 22 21 0 11 -5
11 -28 -2 -38 -22 -73 -11 -127 38 -47 43 -52 79 -11 79 11 1 32 8 46 16 l25
15 -30 -7 c-60 -14 -69 -11 -82 26 -9 27 -12 30 -12 12z m39 -134 c14 -18 34
-54 46 -79 l22 -47 -24 -11 c-67 -30 -146 -4 -179 59 -22 42 -19 56 14 70 16
6 32 18 35 26 10 27 60 16 86 -18z"/>
</g>
</svg>
